HIERARCHY
ROOT hip
{
  OFFSET 0 0 0
  CHANNELS 6 Xposition Yposition Zposition Zrotation Yrotation Xrotation
  JOINT abdomen
  {
    OFFSET 0 20.6881 -0.73152
    CHANNELS 3 Zrotation Xrotation Yrotation
    JOINT chest
    {
      OFFSET 0 11.7043 -0.48768
      CHANNELS 3 Zrotation Xrotation Yrotation
      JOINT neck
      {
        OFFSET 0 22.1894 -2.19456
        CHANNELS 3 Zrotation Xrotation Yrotation
        JOINT head
        {
          OFFSET -0.24384 7.07133 1.2192
          CHANNELS 3 Zrotation Xrotation Yrotation
          JOINT leftEye
          {
            OFFSET 4.14528 8.04674 8.04672
            CHANNELS 3 Zrotation Xrotation Yrotation
            End Site
            {
              OFFSET 1 0 0
            }
          }
          JOINT rightEye
          {
            OFFSET -3.6576 8.04674 8.04672
            CHANNELS 3 Zrotation Xrotation Yrotation
            End Site
            {
              OFFSET 1 0 0
            }
          }
        }
      }
      JOINT rCollar
      {
        OFFSET -2.68224 19.2634 -4.8768
        CHANNELS 3 Zrotation Xrotation Yrotation
        JOINT rShldr
        {
          OFFSET -8.77824 -1.95073 1.46304
          CHANNELS 3 Zrotation Xrotation Yrotation
          JOINT rForeArm
          {
            OFFSET -28.1742 -1.7115 0.48768
            CHANNELS 3 Zrotation Xrotation Yrotation
            JOINT rHand
            {
              OFFSET -22.5879 0.773209 7.07136
              CHANNELS 3 Zrotation Xrotation Yrotation
              JOINT rThumb1
              {
                OFFSET -1.2192 -0.487915 3.41376
                CHANNELS 3 Zrotation Xrotation Yrotation
                JOINT rThumb2
                {
                  OFFSET -3.37035 -0.52449 3.41376
                  CHANNELS 3 Zrotation Xrotation Yrotation
                  End Site
                  {
                    OFFSET -1.78271 -1.18214 1.43049
                  }
                }
              }
              JOINT rIndex1
              {
                OFFSET -7.75947 0.938293 5.60832
                CHANNELS 3 Zrotation Xrotation Yrotation
                JOINT rIndex2
                {
                  OFFSET -2.54057 -0.884171 1.56538
                  CHANNELS 3 Zrotation Xrotation Yrotation
                  End Site
                  {
                    OFFSET -1.62519 -0.234802 1.16502
                  }
                }
              }
              JOINT rMid1
              {
                OFFSET -8.24714 1.18213 3.41376
                CHANNELS 3 Zrotation Xrotation Yrotation
                JOINT rMid2
                {
                  OFFSET -3.10165 -0.590103 1.0647
                  CHANNELS 3 Zrotation Xrotation Yrotation
                  End Site
                  {
                    OFFSET -2.48547 -0.328903 0.83742
                  }
                }
              }
              JOINT rRing1
              {
                OFFSET -8.82822 0.546677 1.51678
                CHANNELS 3 Zrotation Xrotation Yrotation
                JOINT rRing2
                {
                  OFFSET -2.60934 -0.819778 -0.0198488
                  CHANNELS 3 Zrotation Xrotation Yrotation
                  End Site
                  {
                    OFFSET -2.33842 -0.294052 0.168128
                  }
                }
              }
              JOINT rPinky1
              {
                OFFSET -8.27202 -0.0477905 -0.4584
                CHANNELS 3 Zrotation Xrotation Yrotation
                JOINT rPinky2
                {
                  OFFSET -1.82734 -0.647385 -0.700984
                  CHANNELS 3 Zrotation Xrotation Yrotation
                  End Site
                  {
                    OFFSET -1.69225 -0.51767 -0.607171
                  }
                }
              }
            }
          }
        }
      }
      JOINT lCollar
      {
        OFFSET 2.68224 19.2634 -4.8768
        CHANNELS 3 Zrotation Xrotation Yrotation
        JOINT lShldr
        {
          OFFSET 8.77824 -1.95073 1.46304
          CHANNELS 3 Zrotation Xrotation Yrotation
          JOINT lForeArm
          {
            OFFSET 28.1742 -1.7115 0.48768
            CHANNELS 3 Zrotation Xrotation Yrotation
            JOINT lHand
            {
              OFFSET 22.5879 0.773209 7.07136
              CHANNELS 3 Zrotation Xrotation Yrotation
              JOINT lThumb1
              {
                OFFSET 1.2192 -0.487915 3.41376
                CHANNELS 3 Zrotation Xrotation Yrotation
                JOINT lThumb2
                {
                  OFFSET 3.37035 -0.52449 3.41376
                  CHANNELS 3 Zrotation Xrotation Yrotation
                  End Site
                  {
                    OFFSET 1.78271 -1.18214 1.43049
                  }
                }
              }
              JOINT lIndex1
              {
                OFFSET 7.75947 0.938293 5.60832
                CHANNELS 3 Zrotation Xrotation Yrotation
                JOINT lIndex2
                {
                  OFFSET 2.54057 -0.884171 1.56538
                  CHANNELS 3 Zrotation Xrotation Yrotation
                  End Site
                  {
                    OFFSET 1.62519 -0.234802 1.16502
                  }
                }
              }
              JOINT lMid1
              {
                OFFSET 8.24714 1.18213 3.41376
                CHANNELS 3 Zrotation Xrotation Yrotation
                JOINT lMid2
                {
                  OFFSET 3.10165 -0.590103 1.0647
                  CHANNELS 3 Zrotation Xrotation Yrotation
                  End Site
                  {
                    OFFSET 2.48547 -0.328903 0.83742
                  }
                }
              }
              JOINT lRing1
              {
                OFFSET 8.82822 0.546677 1.51678
                CHANNELS 3 Zrotation Xrotation Yrotation
                JOINT lRing2
                {
                  OFFSET 2.60934 -0.819778 -0.0198488
                  CHANNELS 3 Zrotation Xrotation Yrotation
                  End Site
                  {
                    OFFSET 2.33842 -0.294052 0.168128
                  }
                }
              }
              JOINT lPinky1
              {
                OFFSET 8.27202 -0.0477905 -0.4584
                CHANNELS 3 Zrotation Xrotation Yrotation
                JOINT lPinky2
                {
                  OFFSET 1.82734 -0.647385 -0.700984
                  CHANNELS 3 Zrotation Xrotation Yrotation
                  End Site
                  {
                    OFFSET 1.69225 -0.51767 -0.607171
                  }
                }
              }
            }
          }
        }
      }
    }
  }
  JOINT rButtock
  {
    OFFSET -8.77824 4.35084 1.2192
    CHANNELS 3 Zrotation Xrotation Yrotation
    JOINT rThigh
    {
      OFFSET 0 -1.70687 -2.19456
      CHANNELS 3 Zrotation Xrotation Yrotation
      JOINT rShin
      {
        OFFSET 0 -36.8199 0.73152
        CHANNELS 3 Zrotation Xrotation Yrotation
        JOINT rFoot
        {
          OFFSET 0.73152 -45.1104 -5.12064
          CHANNELS 3 Zrotation Xrotation Yrotation
          End Site
          {
            OFFSET -1.1221 -3.69964 12.103
          }
        }
      }
    }
  }
  JOINT lButtock
  {
    OFFSET 8.77824 4.35084 1.2192
    CHANNELS 3 Zrotation Xrotation Yrotation
    JOINT lThigh
    {
      OFFSET 0 -1.70687 -2.19456
      CHANNELS 3 Zrotation Xrotation Yrotation
      JOINT lShin
      {
        OFFSET 0 -36.8199 0.73152
        CHANNELS 3 Zrotation Xrotation Yrotation
        JOINT lFoot
        {
          OFFSET -0.73152 -45.1104 -5.12064
          CHANNELS 3 Zrotation Xrotation Yrotation
          End Site
          {
            OFFSET 1.1221 -3.69964 12.103
          }
        }
      }
    }
  }
}
MOTION
Frames:	4
Frame Time:	0.03333
0.38991784676909447 63.92529010772705 36.87043571844697 -75.18045806884766 68.76868438720703 -73.3326416015625 4.190871715545654 39.139068603515625 -8.286168098449707 12.217415809631348 -13.035989761352539 0.22038407623767853 -7.637281894683838 21.82819938659668 -14.994282722473145 27.08155059814453 -32.98640441894531 -22.820680618286133 -0.07230636477470398 0.05557035654783249 0.0031219711527228355 -0.08529648929834366 -0.10423245280981064 0.06934421509504318 -0.02191431075334549 0.008730724453926086 0.023528998717665672 59.53524398803711 3.846783399581909 -8.719698905944824 -27.564125061035156 -42.110755920410156 87.10308837890625 -0.5370393395423889 -21.33681869506836 -3.231741189956665 0.052087098360061646 -0.041718512773513794 0.17695508897304535 0.13301369547843933 -0.00988205149769783 -0.047708261758089066 -0.025446996092796326 -0.1271582543849945 -0.03087216429412365 7.721526622772217 5.446019172668457 0.39871665835380554 0.0032977003138512373 0.07630782574415207 -0.019940221682190895 2.9164199829101562 0.9431217312812805 0.23781952261924744 -0.029294170439243317 0.02590079791843891 -0.034405726939439774 10.228278160095215 0.7380156517028809 0.04371179640293121 -0.02050982229411602 -0.026983069255948067 0.016952980309724808 2.179486036300659 -0.7314853072166443 -0.1696823686361313 0.1728004366159439 0.021874306723475456 -0.008643959648907185 -3.7437312602996826 54.83303451538086 -80.44481658935547 26.17099952697754 -46.04679870605469 -95.77961730957031 0.9219399690628052 -23.634450912475586 3.4797494411468506 0.15152288973331451 0.06703579425811768 0.0635119080543518 -0.05433668568730354 -0.07940055429935455 0.0013530371943488717 0.07797428965568542 0.027983585372567177 -0.07603238523006439 -7.74030065536499 5.451512813568115 -0.35860809683799744 0.021930454298853874 0.0605655163526535 -0.08693522214889526 -2.914013385772705 0.9742390513420105 -0.03606425225734711 0.021578289568424225 0.13708606362342834 0.015700098127126694 -10.292482376098633 0.7759087681770325 0.07871715724468231 -0.042108356952667236 0.014902635477483273 0.05722055211663246 -2.190525531768799 -0.6131801605224609 0.22160124778747559 0.0810575783252716 -0.01751803420484066 0.027462882921099663 -68.73303985595703 -67.64116668701172 -56.42079544067383 -153.298583984375 86.18612670898438 154.34959411621094 -1.2316906452178955 12.448896408081055 13.304996490478516 0.04111919552087784 -0.06840400397777557 -0.03171101585030556 54.40449905395508 -39.617618560791016 49.16267395019531 5.646933078765869 84.18468475341797 -8.191640853881836 12.178885459899902 -21.5230712890625 24.633298873901367
0.5370404571294785 63.82160186767578 38.03962301462889 -76.62425994873047 69.39128875732422 -75.06452178955078 4.394216060638428 38.381507873535156 -8.161369323730469 12.435550689697266 -12.965877532958984 0.25587090849876404 -7.635390758514404 21.8398380279541 -15.310279846191406 26.761693954467773 -33.283607482910156 -23.53877067565918 -0.045371413230895996 0.053545329719781876 -0.004060184117406607 -0.09443782269954681 -0.09125776588916779 0.11775977909564972 -0.04446156695485115 0.06376656144857407 0.019479332491755486 59.75989532470703 3.7940261363983154 -8.552815437316895 -27.2463321685791 -43.08470153808594 88.97117614746094 -0.5688579678535461 -20.913761138916016 -3.176745891571045 0.05543186515569687 -0.03403351083397865 0.16595108807086945 0.19374969601631165 -0.006092356517910957 -0.03013596683740616 -0.014225493185222149 -0.162078395485878 -0.023872949182987213 7.720167636871338 5.4349045753479 0.3828437924385071 0.016220610588788986 0.06583549827337265 -0.04907984659075737 2.942939281463623 0.9707772135734558 0.22123266756534576 -0.05024957284331322 0.026829944923520088 -0.0029537007212638855 10.224803924560547 0.7823851108551025 0.042575281113386154 -0.05789314582943916 -0.04242873191833496 0.025160986930131912 2.161297082901001 -0.7315464615821838 -0.18527251482009888 0.11322853714227676 -0.013549156486988068 0.021375657990574837 -2.5557610988616943 55.496192932128906 -81.22418975830078 26.297956466674805 -46.070457458496094 -95.71996307373047 0.89849853515625 -23.856054306030273 3.459672451019287 0.09925166517496109 0.053745534271001816 0.08504388481378555 -0.060970962047576904 -0.05249198153614998 0.015268005430698395 0.04458407312631607 0.02148081362247467 -0.09779517352581024 -7.800395965576172 5.401599884033203 -0.3596930205821991 -0.002897366415709257 0.08613622188568115 -0.06600816547870636 -2.916346549987793 0.9221516847610474 -0.029413558542728424 0.03834567591547966 0.1796875298023224 0.01716907136142254 -10.329458236694336 0.7411841750144958 0.06876625865697861 -0.055102892220020294 0.06248186156153679 0.05172864347696304 -2.1638286113739014 -0.638831615447998 0.2579921782016754 0.04077658802270889 -0.053734615445137024 0.021397914737462997 -58.11322784423828 -65.00574493408203 -44.399105072021484 -49.37430953979492 87.71329498291016 50.481903076171875 -2.557882308959961 16.122175216674805 14.596928596496582 0.03655311465263367 -0.06933847069740295 -0.03379217907786369 56.25849151611328 -39.6633415222168 50.80858612060547 6.043773174285889 84.8451919555664 -8.50932788848877 11.966453552246094 -21.3629150390625 24.139062881469727
0.5825689062476158 63.536906242370605 39.05207933858037 -78.72827911376953 70.99825286865234 -70.0379638671875 4.584321975708008 38.22549819946289 -8.049997329711914 12.669168472290039 -12.861161231994629 0.17468079924583435 -7.770667552947998 22.017396926879883 -15.627716064453125 26.58570671081543 -33.281776428222656 -24.21307945251465 -0.05211963877081871 0.015939485281705856 0.023460207507014275 -0.07682134211063385 -0.08395300060510635 0.0862879753112793 -0.03044854663312435 0.09964525699615479 0.04748879745602608 60.18727493286133 3.7848432064056396 -8.28306770324707 -27.293489456176758 -43.2607536315918 89.40507507324219 -0.4459775984287262 -20.550060272216797 -3.116034507751465 0.06883927434682846 0.003703214693814516 0.15256230533123016 0.15099632740020752 0.0017283005872741342 -0.011231716722249985 -0.011298278346657753 -0.15217247605323792 -0.036295514553785324 7.748024940490723 5.468143463134766 0.3903660178184509 -0.008781658485531807 0.030909676104784012 -0.04985097050666809 2.965808391571045 0.9657048583030701 0.16109389066696167 -0.05060083419084549 0.045674022287130356 0.050574351102113724 10.244641304016113 0.8312971591949463 0.014918280765414238 -0.08381790667772293 -0.04194674640893936 0.006839041132479906 2.204279661178589 -0.7357473373413086 -0.17042501270771027 0.1006329134106636 -0.007670425344258547 0.05078098922967911 0.23969469964504242 56.27170944213867 -83.45794677734375 26.516456604003906 -45.6831169128418 -95.08179473876953 0.8315660953521729 -24.4920711517334 3.4484870433807373 0.09365037083625793 0.05508407577872276 0.12225466221570969 -0.015873847529292107 -0.008427168242633343 0.004676175769418478 0.059180766344070435 0.020367253571748734 -0.0415140837430954 -7.842044830322266 5.449886322021484 -0.3986436724662781 -0.026607494801282883 0.06310392171144485 -0.05414527654647827 -2.8679699897766113 0.9202895164489746 -0.03063143417239189 0.023735661059617996 0.12618373334407806 0.008888696320354939 -10.30041790008545 0.7115272879600525 0.038070425391197205 -0.036621104925870895 0.09764241427183151 0.0706457570195198 -2.1756575107574463 -0.6663742065429688 0.2892266511917114 0.01939900405704975 -0.10528899729251862 0.006993717979639769 -47.894187927246094 -62.08378219604492 -31.89127540588379 -12.188057899475098 82.37509155273438 13.380448341369629 -3.005077838897705 19.109207153320312 14.862470626831055 -0.01002495177090168 -0.034118831157684326 0.016006333753466606 57.789146423339844 -40.07764434814453 51.58087158203125 8.865955352783203 85.3912124633789 -11.20691967010498 11.64045238494873 -21.53374671936035 23.500211715698242
0.587924849241972 63.01459074020386 39.90782629698515 -77.43588256835938 71.88963317871094 -69.72640228271484 4.443935394287109 37.8092041015625 -7.4615278244018555 12.438740730285645 -12.617626190185547 0.16344115138053894 -7.882211208343506 22.119272232055664 -15.772848129272461 26.43153953552246 -33.107662200927734 -24.69856071472168 -0.009115642867982388 -0.022431621327996254 0.06382236629724503 -0.05984002724289894 -0.07394270598888397 0.07903960347175598 -0.03835117444396019 0.08715697377920151 0.026423897594213486 59.68867874145508 4.942668914794922 -7.101562976837158 -27.400033950805664 -43.19294357299805 89.28633880615234 -0.32018932700157166 -20.283353805541992 -2.9976718425750732 0.03754008933901787 0.0005633174441754818 0.09382499009370804 0.10687572509050369 0.017206646502017975 -0.015923354774713516 -0.0074995351023972034 -0.1369090974330902 -0.07334364205598831 7.739295482635498 5.4938883781433105 0.44486820697784424 -0.03597201034426689 0.007264960091561079 -0.052214451134204865 2.991250514984131 0.9877228140830994 0.11291015893220901 -0.041237976402044296 0.039708107709884644 0.05745095759630203 10.24598503112793 0.8651371002197266 0.025775665417313576 -0.06836193054914474 -0.03481252118945122 -0.011711422353982925 2.2495758533477783 -0.7353425621986389 -0.18110442161560059 0.07088509947061539 -0.04640761390328407 0.04878825321793556 2.3746137619018555 56.27870178222656 -84.97026062011719 26.7462158203125 -45.10334777832031 -94.01251983642578 0.7506630420684814 -24.343589782714844 3.5039706230163574 0.0860341340303421 0.07338892668485641 0.15210220217704773 -0.01393940020352602 0.015575313940644264 0.029897166416049004 0.04071825370192528 -0.003982701804488897 0.007488897070288658 -7.892282962799072 5.496206283569336 -0.4296391010284424 -0.02228245511651039 0.06978202611207962 -0.019966794177889824 -2.87199330329895 0.9690083265304565 -0.07006741315126419 0.003322633681818843 0.07224234938621521 0.006741369143128395 -10.307087898254395 0.7142595648765564 6.197969196364284e-05 -0.013351638801395893 0.12146276235580444 0.0407671295106411 -2.210498809814453 -0.6766935586929321 0.26457419991493225 -0.02700388990342617 -0.14902707934379578 -0.009952903725206852 -41.45442199707031 -58.42329788208008 -23.49600601196289 -6.020640850067139 77.09185791015625 7.423999309539795 -2.684429168701172 19.6802978515625 14.84439754486084 -0.009056621231138706 0.021830908954143524 0.007964333519339561 58.65739440917969 -39.782955169677734 51.76029968261719 10.8473482131958 85.63048553466797 -12.98393440246582 11.549003601074219 -21.533836364746094 23.24181365966797
